<?xml version="1.0" encoding="utf-8"?>
<!-- Generator: Adobe Illustrator 26.0.0, SVG Export Plug-In . SVG Version: 6.00 Build 0)  -->
<svg version="1.1" id="Layer_1" xmlns="http://www.w3.org/2000/svg" xmlns:xlink="http://www.w3.org/1999/xlink" x="0px" y="0px"
	 viewBox="0 0 288 72" style="enable-background:new 0 0 288 72;" xml:space="preserve">
<style type="text/css">
	.st0{fill:#FCFAFA;}
	.st1{font-family:'OpenSans-Medium';}
	.st2{font-size:56.84px;}
</style>
<g>
	<text transform="matrix(1 0 0 1 66.0771 58.641)" class="st0 st1 st2">Solicitor</text>
	<g>
		<path class="st0" d="M31.23,24.12c-8.69,0-17.38,0-26.07,0.01c-0.47,0-0.59-0.09-0.63-0.59c-0.06-0.77,0.23-1.14,0.91-1.51
			c8.46-4.64,16.91-9.31,25.35-13.99c0.36-0.2,0.62-0.18,0.97,0.01c8.58,4.75,17.16,9.49,25.75,14.22c0.31,0.17,0.43,0.35,0.42,0.71
			c-0.02,1.14,0,1.14-1.12,1.14C48.27,24.12,39.75,24.12,31.23,24.12z"/>
		<path class="st0" d="M57.05,59.45c0.67,0,1.35,0.02,2.02,0c0.33-0.01,0.44,0.07,0.43,0.41c-0.02,0.84-0.01,1.69-0.01,2.53
			c-0.03,0.04-0.05,0.08-0.08,0.12c-14.79,0-29.57,0-44.36,0c-3.89,0-7.78,0-11.68,0.01c-0.37,0-0.54-0.06-0.52-0.49
			c0.04-0.75,0.02-1.5,0.01-2.24c-0.01-0.27,0.07-0.35,0.35-0.35c0.66,0.02,1.33,0,1.99,0c0.17,0.11,0.36,0.07,0.55,0.07
			c16.92,0,33.84,0,50.76,0C56.69,59.51,56.88,59.57,57.05,59.45z"/>
		<path class="st0" d="M12.59,40.3c0-4.03,0.01-8.06-0.01-12.09c0-0.44,0.12-0.53,0.54-0.52c1.82,0.02,3.64,0.02,5.46,0
			c0.34,0,0.42,0.1,0.42,0.43c-0.01,8.13-0.01,16.25,0,24.38c0,0.35-0.11,0.41-0.43,0.41c-1.84-0.01-3.67-0.02-5.51,0
			c-0.39,0.01-0.48-0.09-0.48-0.47C12.6,48.39,12.59,44.35,12.59,40.3z"/>
		<path class="st0" d="M33.07,40.29c0-4.01,0.01-8.02-0.01-12.04c0-0.49,0.15-0.57,0.59-0.56c1.78,0.02,3.57,0.02,5.36,0
			c0.33,0,0.47,0.04,0.47,0.43c-0.01,8.13-0.01,16.25,0,24.38c0,0.36-0.12,0.41-0.44,0.41c-1.84-0.01-3.67-0.02-5.51,0
			c-0.4,0.01-0.46-0.12-0.46-0.48C33.07,48.39,33.07,44.34,33.07,40.29z"/>
		<path class="st0" d="M49.6,40.35c0,4.03-0.01,8.06,0.01,12.09c0,0.38-0.08,0.48-0.47,0.47c-1.84-0.02-3.67-0.02-5.51,0
			c-0.32,0-0.43-0.07-0.43-0.41c0.01-8.13,0.01-16.25,0-24.38c0-0.33,0.08-0.43,0.42-0.42c1.84,0.02,3.67,0.02,5.51,0
			c0.38,0,0.48,0.08,0.48,0.47C49.6,32.22,49.6,36.29,49.6,40.35z"/>
		<path class="st0" d="M22.75,40.35c0-4.05,0.01-8.09-0.01-12.14c0-0.43,0.11-0.53,0.53-0.52c1.8,0.03,3.6,0.02,5.41,0
			c0.33,0,0.46,0.05,0.46,0.43c-0.01,8.13-0.01,16.25,0,24.38c0,0.34-0.1,0.41-0.42,0.41c-1.84-0.02-3.67-0.02-5.51,0
			c-0.4,0.01-0.46-0.12-0.46-0.48C22.76,48.41,22.75,44.38,22.75,40.35z"/>
		<path class="st0" d="M5.31,59.33c-0.01-0.91-0.02-1.83-0.04-2.74c-0.01-0.28,0.15-0.29,0.35-0.29c0.78,0,1.56,0,2.34,0
			c0.17,0.13,0.36,0.07,0.54,0.07c15.12,0,30.23,0,45.35,0c0.18,0,0.37,0.07,0.54-0.07c0.75,0,1.5,0.02,2.24,0
			c0.32-0.01,0.4,0.09,0.4,0.41c-0.02,0.87-0.01,1.73-0.02,2.6c-0.2,0-0.41,0.01-0.61,0.01c-16.83,0-33.66,0-50.49,0
			C5.72,59.32,5.51,59.33,5.31,59.33z"/>
		<path class="st0" d="M31.13,27.45c-7.53,0-15.07-0.01-22.6,0.01c-0.47,0-0.6-0.12-0.58-0.58c0.04-0.66,0.04-1.33,0-1.99
			c-0.03-0.45,0.14-0.52,0.54-0.51c1.77,0.02,3.54,0.01,5.31,0.01c13.37,0,26.73,0,40.1-0.01c0.43,0,0.55,0.1,0.52,0.52
			c-0.04,0.7-0.04,1.4,0,2.09c0.02,0.4-0.12,0.47-0.49,0.46c-6.97-0.01-13.94-0.01-20.92-0.01C32.39,27.45,31.76,27.45,31.13,27.45z
			"/>
		<path class="st0" d="M7.97,56.16c0-0.83,0.01-1.67-0.02-2.5c-0.02-0.39,0.09-0.5,0.5-0.5c4.78,0.01,9.55,0.01,14.33,0.01
			c10.35,0,20.7,0.01,31.05-0.01c0.5,0,0.62,0.13,0.59,0.61c-0.05,0.8-0.02,1.6-0.03,2.39c-0.08,0-0.17,0-0.25,0
			c-15.27,0-30.54,0-45.81,0C8.21,56.17,8.09,56.16,7.97,56.16z"/>
		<path class="st0" d="M5.31,59.33c0.2,0,0.41-0.01,0.61-0.01c16.83,0,33.66,0,50.49,0c0.2,0,0.41-0.01,0.61-0.01
			c0.01,0.05,0.02,0.09,0.03,0.14c-0.17,0.12-0.36,0.07-0.55,0.07c-16.92,0-33.84,0-50.76,0c-0.18,0-0.38,0.05-0.55-0.07
			C5.24,59.41,5.28,59.37,5.31,59.33z"/>
		<path class="st0" d="M7.97,56.16c0.12,0,0.24,0.01,0.36,0.01c15.27,0,30.54,0,45.81,0c0.08,0,0.17,0,0.25,0c0,0.05,0,0.09,0,0.14
			c-0.17,0.13-0.36,0.07-0.54,0.07c-15.12,0-30.23,0-45.35,0c-0.18,0-0.37,0.06-0.54-0.07C7.97,56.25,7.97,56.21,7.97,56.16z"/>
		<path class="st0" d="M59.42,62.51c0.03-0.04,0.05-0.08,0.08-0.12C59.52,62.46,59.51,62.51,59.42,62.51z"/>
	</g>
</g>
</svg>
